<?xml version="1.0" standalone="no"?>
<svg version="1.0" xmlns="http://www.w3.org/2000/svg"
 width="24.000000pt" height="24.000000pt" viewBox="0 0 24.000000 24.000000"
 preserveAspectRatio="xMidYMid meet">

<g transform="translate(0.000000,24.000000) scale(0.100000,-0.100000)"
fill="#000000" stroke="none">
<path d="M130 175 c-7 -8 -18 -15 -25 -15 -21 0 -36 -25 -23 -38 9 -9 7 -17
-7 -32 -24 -26 -11 -39 15 -15 15 13 23 15 33 7 14 -12 37 2 37 22 0 5 7 18
17 28 15 17 15 19 -2 38 -22 24 -29 25 -45 5z m26 -41 c-9 -6 -16 -16 -16 -23
0 -14 -13 -14 -28 1 -16 16 -15 28 2 28 8 0 17 7 20 16 5 14 9 14 22 3 14 -12
14 -14 0 -25z"/>
</g>
</svg>
